<svg width="466" height="56" viewBox="0 0 466 56" fill="none" xmlns="http://www.w3.org/2000/svg">
<path d="M71.252 24.7782C73.0802 35.148 65.345 42.6371 56.9307 42.6371C48.5164 42.6371 42 36.1891 42 28.2348C42 20.2806 50.5318 12.9682 60.5872 14.1202C47.4847 29.099 69.7284 30.8273 71.252 24.7782Z" fill="black"/>
<path d="M82.2851 28.0767C82.2851 41.2171 70.9657 52.1533 56.6426 52.1533C42.3194 52.1533 31 41.2171 31 28.0767C31 14.9362 42.3194 4 56.6426 4C70.9657 4 82.2851 14.9362 82.2851 28.0767Z" stroke="black" stroke-width="6"/>
<path d="M56.5318 34.3207C56.5318 36.707 54.6219 38.6415 52.2659 38.6415C49.9099 38.6415 48 36.707 48 34.3207C48 31.9345 49.9099 30 52.2659 30C54.6219 30 56.5318 31.9345 56.5318 34.3207Z" fill="#1E1F22"/>
<path d="M3 28C3 28 31 52 57.5 52.5C84 53 111 28 111 28" stroke="black" stroke-width="5" stroke-linecap="round"/>
<path d="M111 27.5073C111 27.5073 83 3.50732 56.5 3.00732C30 2.50732 3 27.5073 3 27.5073" stroke="black" stroke-width="5" stroke-linecap="round"/>
<path d="M140.996 35.7275V40H125.051V15.3394H130.212V35.7275H140.996ZM160.546 21.6797V40H155.727V36.7017H155.625C154.719 39.0088 152.907 40.3418 150.139 40.3418C146.174 40.3418 143.542 37.7612 143.542 33.4888V21.6797H148.532V32.4463C148.532 34.8901 149.746 36.189 151.95 36.189C154.172 36.189 155.556 34.5996 155.556 32.1729V21.6797H160.546ZM180.439 28.4985H175.808C175.517 26.5674 174.235 25.2002 172.185 25.2002C169.724 25.2002 168.186 27.2852 168.186 30.8228C168.186 34.4287 169.724 36.4795 172.202 36.4795C174.201 36.4795 175.5 35.2832 175.808 33.2837H180.456C180.2 37.6074 176.97 40.3931 172.15 40.3931C166.63 40.3931 163.127 36.8042 163.127 30.8228C163.127 24.9438 166.63 21.2866 172.116 21.2866C177.072 21.2866 180.217 24.3457 180.439 28.4985ZM182.951 40V21.6797H187.941V40H182.951ZM185.446 19.6631C183.942 19.6631 182.78 18.5181 182.78 17.0825C182.78 15.6299 183.942 14.502 185.446 14.502C186.95 14.502 188.112 15.6299 188.112 17.0825C188.112 18.5181 186.95 19.6631 185.446 19.6631ZM198.076 40.2905C193.496 40.2905 190.607 36.6675 190.607 30.8057C190.607 24.9951 193.513 21.3892 198.11 21.3892C200.759 21.3892 202.81 22.7905 203.698 24.8242H203.801V15.3394H208.791V40H203.869V36.8555H203.784C202.895 38.8721 200.776 40.2905 198.076 40.2905ZM199.768 25.3882C197.255 25.3882 195.717 27.4902 195.717 30.8398C195.717 34.2065 197.255 36.2744 199.768 36.2744C202.246 36.2744 203.835 34.1895 203.835 30.8398C203.835 27.5073 202.246 25.3882 199.768 25.3882ZM219.489 15.3394H228.906C236.306 15.3394 240.664 19.7485 240.664 27.5757C240.664 35.4028 236.306 40 228.906 40H219.489V15.3394ZM224.65 19.5947V35.7275H228.291C232.905 35.7275 235.4 32.9248 235.4 27.5928C235.4 22.4316 232.836 19.5947 228.291 19.5947H224.65ZM243.569 40V21.6797H248.388V24.978H248.491C249.14 22.6538 250.695 21.3892 252.849 21.3892C253.43 21.3892 253.925 21.4746 254.267 21.5771V25.9692C253.857 25.7983 253.173 25.6787 252.456 25.6787C249.995 25.6787 248.559 27.1826 248.559 29.7632V40H243.569ZM263.923 24.978C261.735 24.978 260.163 26.6357 259.992 28.9258H267.768C267.666 26.5845 266.145 24.978 263.923 24.978ZM267.836 34.3945H272.417C271.87 37.9834 268.588 40.3931 264.06 40.3931C258.42 40.3931 255.036 36.7871 255.036 30.9253C255.036 25.0806 258.454 21.2866 263.872 21.2866C269.204 21.2866 272.57 24.8926 272.57 30.4639V31.9849H259.941V32.2925C259.941 34.9072 261.599 36.7017 264.145 36.7017C265.974 36.7017 267.375 35.7959 267.836 34.3945ZM282.226 36.6846C284.396 36.6846 286.191 35.2661 286.191 33.2837V31.9507L282.329 32.1899C280.466 32.3267 279.406 33.1641 279.406 34.4629C279.406 35.8301 280.534 36.6846 282.226 36.6846ZM280.585 40.2905C277.099 40.2905 274.45 38.0347 274.45 34.7363C274.45 31.4038 277.014 29.4727 281.577 29.1992L286.191 28.9258V27.7124C286.191 26.0034 284.995 25.0122 283.115 25.0122C281.252 25.0122 280.073 25.9351 279.833 27.2852H275.271C275.458 23.7305 278.483 21.2866 283.337 21.2866C288.037 21.2866 291.096 23.7134 291.096 27.4048V40H286.276V37.1973H286.174C285.148 39.1455 282.875 40.2905 280.585 40.2905ZM294.326 40V21.6797H299.145V24.9951H299.248C300.017 22.7905 301.982 21.3379 304.477 21.3379C307.126 21.3379 308.972 22.7051 309.587 25.0977H309.689C310.51 22.7905 312.697 21.3379 315.38 21.3379C318.969 21.3379 321.379 23.7988 321.379 27.4902V40H316.389V28.7378C316.389 26.6187 315.329 25.4565 313.398 25.4565C311.501 25.4565 310.253 26.8408 310.253 28.8745V40H305.451V28.584C305.451 26.6187 304.34 25.4565 302.495 25.4565C300.598 25.4565 299.316 26.8921 299.316 28.9429V40H294.326ZM337.067 40H331.906V15.3394H337.067V40ZM340.742 40V21.6797H345.561V24.9438H345.664C346.638 22.6709 348.569 21.3379 351.389 21.3379C355.456 21.3379 357.746 23.9014 357.746 28.1909V40H352.756V29.2334C352.756 26.8408 351.628 25.4736 349.389 25.4736C347.15 25.4736 345.732 27.1143 345.732 29.4897V40H340.742ZM360.993 40V21.6797H365.983V40H360.993ZM363.488 19.6631C361.984 19.6631 360.822 18.5181 360.822 17.0825C360.822 15.6299 361.984 14.502 363.488 14.502C364.992 14.502 366.154 15.6299 366.154 17.0825C366.154 18.5181 364.992 19.6631 363.488 19.6631ZM370.649 17.4585H375.639V21.6797H379.023V25.4395H375.639V34.2065C375.639 35.6079 376.323 36.2744 377.792 36.2744C378.237 36.2744 378.698 36.2402 379.006 36.189V39.8633C378.493 39.9829 377.639 40.0684 376.63 40.0684C372.324 40.0684 370.649 38.6328 370.649 35.061V25.4395H368.068V21.6797H370.649V17.4585ZM381.843 40V21.6797H386.833V40H381.843ZM384.338 19.6631C382.834 19.6631 381.672 18.5181 381.672 17.0825C381.672 15.6299 382.834 14.502 384.338 14.502C385.842 14.502 387.004 15.6299 387.004 17.0825C387.004 18.5181 385.842 19.6631 384.338 19.6631ZM397.241 36.6846C399.411 36.6846 401.206 35.2661 401.206 33.2837V31.9507L397.343 32.1899C395.48 32.3267 394.421 33.1641 394.421 34.4629C394.421 35.8301 395.549 36.6846 397.241 36.6846ZM395.6 40.2905C392.114 40.2905 389.465 38.0347 389.465 34.7363C389.465 31.4038 392.028 29.4727 396.591 29.1992L401.206 28.9258V27.7124C401.206 26.0034 400.009 25.0122 398.129 25.0122C396.267 25.0122 395.087 25.9351 394.848 27.2852H390.285C390.473 23.7305 393.498 21.2866 398.352 21.2866C403.051 21.2866 406.11 23.7134 406.11 27.4048V40H401.291V37.1973H401.188C400.163 39.1455 397.89 40.2905 395.6 40.2905ZM410.673 17.4585H415.664V21.6797H419.047V25.4395H415.664V34.2065C415.664 35.6079 416.347 36.2744 417.817 36.2744C418.261 36.2744 418.723 36.2402 419.03 36.189V39.8633C418.518 39.9829 417.663 40.0684 416.655 40.0684C412.348 40.0684 410.673 38.6328 410.673 35.061V25.4395H408.093V21.6797H410.673V17.4585ZM421.867 40V21.6797H426.857V40H421.867ZM424.362 19.6631C422.858 19.6631 421.696 18.5181 421.696 17.0825C421.696 15.6299 422.858 14.502 424.362 14.502C425.866 14.502 427.028 15.6299 427.028 17.0825C427.028 18.5181 425.866 19.6631 424.362 19.6631ZM446.938 21.6797L440.649 40H435.009L428.669 21.6797H434.018L437.829 35.5908H437.932L441.726 21.6797H446.938ZM456.389 24.978C454.201 24.978 452.629 26.6357 452.458 28.9258H460.234C460.131 26.5845 458.61 24.978 456.389 24.978ZM460.302 34.3945H464.882C464.335 37.9834 461.054 40.3931 456.525 40.3931C450.886 40.3931 447.502 36.7871 447.502 30.9253C447.502 25.0806 450.92 21.2866 456.337 21.2866C461.669 21.2866 465.036 24.8926 465.036 30.4639V31.9849H452.407V32.2925C452.407 34.9072 454.064 36.7017 456.611 36.7017C458.439 36.7017 459.841 35.7959 460.302 34.3945Z" fill="black"/>
</svg>
