<svg width="516" height="56" viewBox="0 0 516 56" fill="none" xmlns="http://www.w3.org/2000/svg">
<path d="M71.252 24.7782C73.0802 35.148 65.345 42.6371 56.9307 42.6371C48.5164 42.6371 42 36.1891 42 28.2348C42 20.2806 50.5318 12.9682 60.5872 14.1202C47.4847 29.099 69.7284 30.8273 71.252 24.7782Z" fill="black"/>
<path d="M82.2851 28.0767C82.2851 41.2171 70.9657 52.1533 56.6426 52.1533C42.3194 52.1533 31 41.2171 31 28.0767C31 14.9362 42.3194 4 56.6426 4C70.9657 4 82.2851 14.9362 82.2851 28.0767Z" stroke="black" stroke-width="6"/>
<path d="M56.5318 34.3207C56.5318 36.707 54.6219 38.6415 52.2659 38.6415C49.9099 38.6415 48 36.707 48 34.3207C48 31.9345 49.9099 30 52.2659 30C54.6219 30 56.5318 31.9345 56.5318 34.3207Z" fill="#1E1F22"/>
<path d="M3 28C3 28 31 52 57.5 52.5C84 53 111 28 111 28" stroke="black" stroke-width="5" stroke-linecap="round"/>
<path d="M111 27.5073C111 27.5073 83 3.50732 56.5 3.00732C30 2.50732 3 27.5073 3 27.5073" stroke="black" stroke-width="5" stroke-linecap="round"/>
<path d="M140.996 35.7275V40H125.051V15.3394H130.212V35.7275H140.996ZM160.546 21.6797V40H155.727V36.7017H155.625C154.719 39.0088 152.907 40.3418 150.139 40.3418C146.174 40.3418 143.542 37.7612 143.542 33.4888V21.6797H148.532V32.4463C148.532 34.8901 149.746 36.189 151.95 36.189C154.172 36.189 155.556 34.5996 155.556 32.1729V21.6797H160.546ZM180.439 28.4985H175.808C175.517 26.5674 174.235 25.2002 172.185 25.2002C169.724 25.2002 168.186 27.2852 168.186 30.8228C168.186 34.4287 169.724 36.4795 172.202 36.4795C174.201 36.4795 175.5 35.2832 175.808 33.2837H180.456C180.2 37.6074 176.97 40.3931 172.15 40.3931C166.63 40.3931 163.127 36.8042 163.127 30.8228C163.127 24.9438 166.63 21.2866 172.116 21.2866C177.072 21.2866 180.217 24.3457 180.439 28.4985ZM182.951 40V21.6797H187.941V40H182.951ZM185.446 19.6631C183.942 19.6631 182.78 18.5181 182.78 17.0825C182.78 15.6299 183.942 14.502 185.446 14.502C186.95 14.502 188.112 15.6299 188.112 17.0825C188.112 18.5181 186.95 19.6631 185.446 19.6631ZM198.076 40.2905C193.496 40.2905 190.607 36.6675 190.607 30.8057C190.607 24.9951 193.513 21.3892 198.11 21.3892C200.759 21.3892 202.81 22.7905 203.698 24.8242H203.801V15.3394H208.791V40H203.869V36.8555H203.784C202.895 38.8721 200.776 40.2905 198.076 40.2905ZM199.768 25.3882C197.255 25.3882 195.717 27.4902 195.717 30.8398C195.717 34.2065 197.255 36.2744 199.768 36.2744C202.246 36.2744 203.835 34.1895 203.835 30.8398C203.835 27.5073 202.246 25.3882 199.768 25.3882ZM219.489 15.3394H228.906C236.306 15.3394 240.664 19.7485 240.664 27.5757C240.664 35.4028 236.306 40 228.906 40H219.489V15.3394ZM224.65 19.5947V35.7275H228.291C232.905 35.7275 235.4 32.9248 235.4 27.5928C235.4 22.4316 232.836 19.5947 228.291 19.5947H224.65ZM243.569 40V21.6797H248.388V24.978H248.491C249.14 22.6538 250.695 21.3892 252.849 21.3892C253.43 21.3892 253.925 21.4746 254.267 21.5771V25.9692C253.857 25.7983 253.173 25.6787 252.456 25.6787C249.995 25.6787 248.559 27.1826 248.559 29.7632V40H243.569ZM263.923 24.978C261.735 24.978 260.163 26.6357 259.992 28.9258H267.768C267.666 26.5845 266.145 24.978 263.923 24.978ZM267.836 34.3945H272.417C271.87 37.9834 268.588 40.3931 264.06 40.3931C258.42 40.3931 255.036 36.7871 255.036 30.9253C255.036 25.0806 258.454 21.2866 263.872 21.2866C269.204 21.2866 272.57 24.8926 272.57 30.4639V31.9849H259.941V32.2925C259.941 34.9072 261.599 36.7017 264.145 36.7017C265.974 36.7017 267.375 35.7959 267.836 34.3945ZM282.226 36.6846C284.396 36.6846 286.191 35.2661 286.191 33.2837V31.9507L282.329 32.1899C280.466 32.3267 279.406 33.1641 279.406 34.4629C279.406 35.8301 280.534 36.6846 282.226 36.6846ZM280.585 40.2905C277.099 40.2905 274.45 38.0347 274.45 34.7363C274.45 31.4038 277.014 29.4727 281.577 29.1992L286.191 28.9258V27.7124C286.191 26.0034 284.995 25.0122 283.115 25.0122C281.252 25.0122 280.073 25.9351 279.833 27.2852H275.271C275.458 23.7305 278.483 21.2866 283.337 21.2866C288.037 21.2866 291.096 23.7134 291.096 27.4048V40H286.276V37.1973H286.174C285.148 39.1455 282.875 40.2905 280.585 40.2905ZM294.326 40V21.6797H299.145V24.9951H299.248C300.017 22.7905 301.982 21.3379 304.477 21.3379C307.126 21.3379 308.972 22.7051 309.587 25.0977H309.689C310.51 22.7905 312.697 21.3379 315.38 21.3379C318.969 21.3379 321.379 23.7988 321.379 27.4902V40H316.389V28.7378C316.389 26.6187 315.329 25.4565 313.398 25.4565C311.501 25.4565 310.253 26.8408 310.253 28.8745V40H305.451V28.584C305.451 26.6187 304.34 25.4565 302.495 25.4565C300.598 25.4565 299.316 26.8921 299.316 28.9429V40H294.326ZM324.626 40V21.6797H329.616V40H324.626ZM327.121 19.6631C325.617 19.6631 324.455 18.5181 324.455 17.0825C324.455 15.6299 325.617 14.502 327.121 14.502C328.625 14.502 329.787 15.6299 329.787 17.0825C329.787 18.5181 328.625 19.6631 327.121 19.6631ZM332.949 40V21.6797H337.768V24.9438H337.871C338.845 22.6709 340.776 21.3379 343.596 21.3379C347.663 21.3379 349.953 23.9014 349.953 28.1909V40H344.963V29.2334C344.963 26.8408 343.835 25.4736 341.596 25.4736C339.357 25.4736 337.939 27.1143 337.939 29.4897V40H332.949ZM361.574 36.1035C364.069 36.1035 365.659 34.1211 365.659 30.8057C365.659 27.5073 364.069 25.3882 361.574 25.3882C359.113 25.3882 357.558 27.4731 357.558 30.8057C357.558 34.1553 359.096 36.1035 361.574 36.1035ZM361.489 46.9043C356.669 46.9043 353.405 44.563 353.012 41.2988H357.9C358.293 42.5635 359.729 43.4351 361.625 43.4351C364.206 43.4351 365.642 41.9995 365.642 39.8804V36.6675H365.539C364.685 38.6157 362.531 39.9487 359.882 39.9487C355.405 39.9487 352.448 36.4966 352.448 30.7715C352.448 24.9609 355.319 21.3892 359.968 21.3892C362.6 21.3892 364.667 22.7734 365.625 24.8755H365.71V21.6797H370.632V39.7437C370.632 44.1187 366.975 46.9043 361.489 46.9043ZM386.423 40H381.262V15.3394H386.423V40ZM390.097 40V21.6797H394.917V24.9438H395.019C395.993 22.6709 397.924 21.3379 400.744 21.3379C404.812 21.3379 407.102 23.9014 407.102 28.1909V40H402.111V29.2334C402.111 26.8408 400.983 25.4736 398.745 25.4736C396.506 25.4736 395.087 27.1143 395.087 29.4897V40H390.097ZM410.349 40V21.6797H415.339V40H410.349ZM412.844 19.6631C411.34 19.6631 410.178 18.5181 410.178 17.0825C410.178 15.6299 411.34 14.502 412.844 14.502C414.348 14.502 415.51 15.6299 415.51 17.0825C415.51 18.5181 414.348 19.6631 412.844 19.6631ZM420.004 17.4585H424.995V21.6797H428.378V25.4395H424.995V34.2065C424.995 35.6079 425.678 36.2744 427.148 36.2744C427.592 36.2744 428.054 36.2402 428.361 36.189V39.8633C427.849 39.9829 426.994 40.0684 425.986 40.0684C421.679 40.0684 420.004 38.6328 420.004 35.061V25.4395H417.424V21.6797H420.004V17.4585ZM431.198 40V21.6797H436.188V40H431.198ZM433.693 19.6631C432.189 19.6631 431.027 18.5181 431.027 17.0825C431.027 15.6299 432.189 14.502 433.693 14.502C435.197 14.502 436.359 15.6299 436.359 17.0825C436.359 18.5181 435.197 19.6631 433.693 19.6631ZM446.596 36.6846C448.767 36.6846 450.561 35.2661 450.561 33.2837V31.9507L446.699 32.1899C444.836 32.3267 443.776 33.1641 443.776 34.4629C443.776 35.8301 444.904 36.6846 446.596 36.6846ZM444.956 40.2905C441.469 40.2905 438.82 38.0347 438.82 34.7363C438.82 31.4038 441.384 29.4727 445.947 29.1992L450.561 28.9258V27.7124C450.561 26.0034 449.365 25.0122 447.485 25.0122C445.622 25.0122 444.443 25.9351 444.204 27.2852H439.641C439.829 23.7305 442.854 21.2866 447.707 21.2866C452.407 21.2866 455.466 23.7134 455.466 27.4048V40H450.646V37.1973H450.544C449.519 39.1455 447.246 40.2905 444.956 40.2905ZM460.029 17.4585H465.019V21.6797H468.403V25.4395H465.019V34.2065C465.019 35.6079 465.703 36.2744 467.172 36.2744C467.617 36.2744 468.078 36.2402 468.386 36.189V39.8633C467.873 39.9829 467.019 40.0684 466.01 40.0684C461.704 40.0684 460.029 38.6328 460.029 35.061V25.4395H457.448V21.6797H460.029V17.4585ZM471.223 40V21.6797H476.213V40H471.223ZM473.718 19.6631C472.214 19.6631 471.052 18.5181 471.052 17.0825C471.052 15.6299 472.214 14.502 473.718 14.502C475.222 14.502 476.384 15.6299 476.384 17.0825C476.384 18.5181 475.222 19.6631 473.718 19.6631ZM496.293 21.6797L490.004 40H484.365L478.024 21.6797H483.374L487.185 35.5908H487.287L491.081 21.6797H496.293ZM505.744 24.978C503.557 24.978 501.984 26.6357 501.813 28.9258H509.589C509.487 26.5845 507.966 24.978 505.744 24.978ZM509.658 34.3945H514.238C513.691 37.9834 510.41 40.3931 505.881 40.3931C500.241 40.3931 496.857 36.7871 496.857 30.9253C496.857 25.0806 500.275 21.2866 505.693 21.2866C511.025 21.2866 514.392 24.8926 514.392 30.4639V31.9849H501.762V32.2925C501.762 34.9072 503.42 36.7017 505.966 36.7017C507.795 36.7017 509.196 35.7959 509.658 34.3945Z" fill="black"/>
</svg>
