<svg width="258" height="262" viewBox="0 0 258 262" fill="none" xmlns="http://www.w3.org/2000/svg">
<path d="M255.5 131C255.5 202.548 198.613 260.5 128.5 260.5C58.387 260.5 1.5 202.548 1.5 131C1.5 59.4517 58.387 1.5 128.5 1.5C198.613 1.5 255.5 59.4517 255.5 131Z" fill="black" stroke="white" stroke-width="3"/>
<path d="M170 220.5C170 242.845 151.442 261 128.5 261C105.558 261 87 242.845 87 220.5C87 198.155 105.558 180 128.5 180C151.442 180 170 198.155 170 220.5Z" stroke="white" stroke-width="2"/>
<path d="M256 137.5C256 159.845 237.442 178 214.5 178C191.558 178 173 159.845 173 137.5C173 115.155 191.558 97 214.5 97C237.442 97 256 115.155 256 137.5Z" stroke="white" stroke-width="2"/>
<path d="M170 45.5C170 69.5682 151.377 89 128.5 89C105.623 89 87 69.5682 87 45.5C87 21.4318 105.623 2 128.5 2C151.377 2 170 21.4318 170 45.5Z" stroke="white" stroke-width="2"/>
<path d="M84 137.5C84 159.845 65.4424 178 42.5 178C19.5576 178 1 159.845 1 137.5C1 115.155 19.5576 97 42.5 97C65.4424 97 84 115.155 84 137.5Z" stroke="white" stroke-width="2"/>
<path d="M187.604 80.736C197.261 68.2248 210.838 59.1457 226.689 52.2249C233.723 61.2238 239.737 69.5199 244.451 80.8832C249.271 92.4994 252.754 107.378 254.5 129.539C254.49 172.213 237.633 196.282 226.682 210.284C209.607 203.12 196.028 194.069 186.676 181.575C177.206 168.923 172 152.647 172 131C172 109.696 177.816 93.4172 187.604 80.736Z" stroke="white" stroke-width="2"/>
<path d="M68.8959 181.764C59.2392 194.275 45.6622 203.354 29.8111 210.275C22.7773 201.276 16.7632 192.98 12.0487 181.617C7.2292 170.001 3.74578 155.122 2.00001 132.961C2.01032 90.2873 18.8671 66.2184 29.8175 52.2158C46.8925 59.3803 60.4724 68.4313 69.8244 80.9253C79.2942 93.5765 84.5 109.853 84.5 131.5C84.5 152.804 78.6838 169.083 68.8959 181.764Z" stroke="white" stroke-width="2"/>
<path d="M78.7405 72.022C66.2251 61.336 57.1623 46.5502 50.2107 29.9851C59.2501 22.6488 67.5776 16.3775 78.9875 11.4628C90.6369 6.44498 105.558 2.81791 127.785 1.00001C170.61 1.01114 194.753 18.5859 208.798 29.9913C201.6 47.8267 192.444 62.6167 179.823 72.9862C167.063 83.4702 150.681 89.5 129 89.5C107.664 89.5 91.4066 82.8368 78.7405 72.022Z" stroke="white" stroke-width="2"/>
<path d="M180.52 193.109C192.903 202.518 201.858 215.845 208.775 231.689C199.765 238.747 191.591 245.003 180.347 249.96C168.86 255.024 154.112 258.755 131.961 260.5C89.2873 260.49 65.2184 243.633 51.2158 232.682C58.3803 215.607 67.4313 202.028 79.9253 192.676C92.5765 183.206 108.853 178 130.5 178C151.813 178 167.968 183.572 180.52 193.109Z" stroke="white" stroke-width="2"/>
<mask id="path-10-inside-1_56_87" fill="white">
<path d="M223.5 137.475C206.5 151.5 186.5 178 130.5 184C79.5 178 61.5 160 35 137.475C54 118 83.5 94.2812 130.5 90.5C174.5 92.5 205.5 117.5 223.5 137.475Z"/>
</mask>
<path d="M223.5 137.475L227.318 142.103L232.153 138.114L227.957 133.458L223.5 137.475ZM130.5 184L129.799 189.959L130.469 190.038L131.139 189.966L130.5 184ZM35 137.475L30.7054 133.285C29.5442 134.475 28.929 136.093 29.0065 137.754C29.084 139.415 29.8472 140.969 31.1141 142.046L35 137.475ZM130.5 90.5L130.772 84.5062L130.395 84.489L130.019 84.5193L130.5 90.5ZM219.682 132.846C210.33 140.562 202.173 149.786 188.368 158.708C175.03 167.327 156.927 175.134 129.861 178.034L131.139 189.966C160.073 186.866 179.97 178.423 194.882 168.786C209.327 159.451 219.67 148.413 227.318 142.103L219.682 132.846ZM131.201 178.041C106.367 175.119 89.9115 169.327 76.5278 161.718C62.957 154.003 52.355 144.352 38.8859 132.903L31.1141 142.046C44.145 153.123 55.793 163.734 70.5972 172.15C85.5885 180.673 103.633 186.881 129.799 189.959L131.201 178.041ZM39.2946 141.665C57.7785 122.719 86.006 100.099 130.981 96.4807L130.019 84.5193C80.994 88.4635 50.2215 113.281 30.7054 133.285L39.2946 141.665ZM130.228 96.4938C171.967 98.3911 201.577 122.11 219.043 141.491L227.957 133.458C209.423 112.89 177.033 86.6089 130.772 84.5062L130.228 96.4938Z" fill="white" mask="url(#path-10-inside-1_56_87)"/>
<circle cx="129.5" cy="137" r="44" stroke="white" stroke-width="6"/>
<path d="M153 131C156 149 143.307 162 129.5 162C115.693 162 105 150.807 105 137C105 123.193 119 110.5 135.5 112.5C114 138.5 150.5 141.5 153 131Z" fill="white"/>
<ellipse cx="119.5" cy="146.5" rx="7" ry="7.5" fill="black"/>
<path d="M84.5 151.274C85.5 167.274 85.8217 166.904 81 164.274C75.5 161.274 68 156.774 64.5 151.274C73.5 147.774 72.9772 141.274 78.5 141.274C83.5 138 82.5 143.5 84.5 151.274Z" fill="black"/>
<path d="M166.824 106.797C169 102.501 195.5 117.501 190.221 121.502C185.228 125.285 184.902 135.779 179.995 140.071C177.697 131.325 176.574 131.376 174.965 125.082C172.644 116.008 167.835 112.294 166.824 106.797Z" fill="black"/>
<path d="M179.502 149.502C194.312 155.638 193.62 155.186 189.138 158.36C184.025 161.981 176.686 166.739 170.207 167.464C171.021 157.842 171.073 158.961 173.501 154.001C177.002 148.501 174 138.001 179.502 149.502Z" fill="black"/>
<path d="M86.9884 221.986C76.451 221.7 65.149 217.04 55.1064 212.899C54.7616 212.757 54.4184 212.615 54.0767 212.474C43.6444 208.178 34.1657 201.88 26.1817 193.941C18.1978 186.002 11.8648 176.578 7.54427 166.206C3.2237 155.834 1 144.718 1 133.491C1 122.265 3.2237 111.149 7.54427 100.777C11.8649 90.4052 18.1978 80.9807 26.1817 73.0419C34.1657 65.103 43.6444 58.8052 54.0767 54.5084C64.2009 50.3385 75.0308 48.1324 85.9826 48.0058L85.9826 133.491L85.9827 133.503L86.9884 221.986Z" stroke="white" stroke-width="2"/>
<path d="M92.4761 70.3089C88.8631 79.7816 86.6436 77.835 82.9596 73.4848C80.0171 70.0104 76.7837 65.8763 75.875 61.611C82.2569 63.9434 76.0343 50.4656 83.2891 50.3597C89.537 50.2683 84.0552 57.7703 92.4761 70.3089Z" fill="black"/>
<path d="M90.5779 93.9594C91.0811 101.159 81.7472 104.474 82.3841 99.7475C82.8229 96.4906 77.9968 93.3267 77.2779 89.8091C82.4777 91.7005 74.1528 71.9371 84.2328 77.7674C93.2191 81.7964 83.3284 83.6605 90.5779 93.9594Z" fill="black"/>
<path d="M83 130C81.5 140 73.2957 143 74.2957 137.5C74.9848 133.71 70.2237 130.407 69.7346 126.4C74.9741 128.207 63.2472 118.501 78.7469 111.5C104.5 97.4995 83.8143 113.272 83 130Z" fill="black"/>
<path d="M83 130C81.5 140 73.2957 143 74.2957 137.5C74.9848 133.71 70.2237 130.407 69.7346 126.4C74.9741 128.207 63.2472 118.501 78.7469 111.5C104.5 97.4995 83.8143 113.272 83 130Z" fill="black"/>
<path d="M90.2677 164.505C95.001 171.498 79.0007 164.635 80.0007 162.135C80.6208 160.584 79.5171 161.403 78.767 159.506C82.3242 160.908 73.5891 152.54 82.7673 151.006C86.5007 151.498 88 162.137 90.2677 164.505Z" fill="black"/>
<path d="M90.2677 164.505C95.001 171.498 79.0007 164.635 80.0007 162.135C80.6208 160.584 79.5171 161.403 78.767 159.506C82.3242 160.908 73.5891 152.54 82.7673 151.006C86.5007 151.498 88 162.137 90.2677 164.505Z" fill="black"/>
<path d="M88 181.5L87.5 187L85.0005 188.5L84.5007 172.5L88.5005 174L88 181.5Z" fill="black"/>
<path d="M88.0215 186.583C88.0215 186.86 88.5215 186.583 87.5215 187.083C86.5215 187.583 87.0215 186.86 87.0215 186.583C87.0215 186.307 87.2453 186.083 87.5215 186.083C87.7976 186.083 88.0215 186.307 88.0215 186.583Z" fill="black"/>
<path d="M93.0002 195C93.0002 198.314 86.5005 212 83.5002 211.5C73.5006 208.5 84.233 198.314 84.233 195C83.2015 192 86.0005 189.5 88.3587 189C90.922 189 93.0002 191.686 93.0002 195Z" fill="black"/>
<path d="M91.5005 198.5C92.3488 201.703 86.0377 205.98 85.8804 219.987C75.446 219.647 83.213 207.053 82.3646 203.849C80.5994 201.213 82.6651 198.08 84.8168 196.993C87.2946 196.337 90.6521 195.297 91.5005 198.5Z" fill="black"/>
<path d="M40.118 97.2402C40.1017 85.0618 45.3013 71.9109 49.6021 60.6537C53.9029 49.3965 60.2151 39.1648 68.1783 30.5427C76.1415 21.9205 85.5997 15.0769 96.0129 10.4025C106.426 5.72807 117.59 3.3144 128.868 3.29931C140.146 3.28422 151.317 5.668 161.743 10.3145C172.168 14.9611 181.645 21.7794 189.631 30.3801C197.617 38.9809 203.957 49.1958 208.288 60.4414C212.619 71.687 214.856 83.7433 214.873 95.9217" stroke="white" stroke-width="2"/>
<path d="M219 177.006C219 188.348 213.746 200.589 209.399 211.068C205.052 221.547 198.682 231.068 190.65 239.088C182.619 247.108 181.994 248.666 171.5 253.006C161.006 257.347 140.358 260.506 129 260.506C117.642 260.506 107.107 258.703 97 256.006C86.5064 251.666 76.3642 247.108 68.3327 239.088C60.3013 231.068 53.9304 221.547 49.5838 211.068C45.2372 200.589 43 189.359 43 178.017" stroke="white" stroke-width="2"/>
<path d="M169 48C180.423 48 192.751 53.2543 203.304 57.6009C213.857 61.9475 223.446 68.3184 231.523 76.3499C239.6 84.3814 246.008 93.9161 250.379 104.41C254.75 114.903 257 126.15 257 137.509C257 148.867 254.75 160.114 250.379 170.607C246.008 181.101 239.6 190.636 231.523 198.667C223.446 206.699 213.857 213.07 203.304 217.416C192.751 221.763 181.44 224 170.017 224" stroke="white" stroke-width="2"/>
<circle cx="40.5" cy="205.5" r="5.5" fill="white"/>
<circle cx="59.5" cy="214.5" r="5.5" fill="white"/>
<circle cx="202.5" cy="217.5" r="5.5" fill="white"/>
<circle cx="212.5" cy="203.5" r="5.5" fill="white"/>
<circle cx="209.5" cy="60.5" r="5.5" fill="white"/>
<circle cx="195.5" cy="55.5" r="5.5" fill="white"/>
<path d="M63 44C63 47.0376 60.5376 49.5 57.5 49.5C54.4624 49.5 52 47.0376 52 44C52 40.9624 54.4624 38.5 57.5 38.5C60.5376 38.5 63 40.9624 63 44Z" fill="white"/>
<circle cx="44.5" cy="59.5" r="5.5" fill="white"/>
<line x1="152.156" y1="188.463" x2="159.156" y2="177.463" stroke="white" stroke-width="2"/>
<line x1="108.116" y1="185.971" x2="100.205" y2="175.607" stroke="white" stroke-width="2"/>
<path d="M159.238 97.0205L152 87.2024" stroke="white" stroke-width="2"/>
<path d="M103 98L110 85" stroke="white" stroke-width="2"/>
</svg>
